HIERARCHY
ROOT Hips
{
	OFFSET	0.00	0.00	0.00
	CHANNELS 6 Xposition Yposition Zposition Zrotation Xrotation Yrotation
	JOINT LeftUpLeg
	{
		OFFSET	 0.126116	-0.065224	 0.014019
		CHANNELS 3 Zrotation Xrotation Yrotation
		JOINT LeftLeg
		{
			OFFSET	 0.000000	 0.569914	 0.000000
			CHANNELS 3 Zrotation Xrotation Yrotation
			JOINT LeftFoot
			{
				OFFSET	 0.000000	 0.544423	 0.000000
				CHANNELS 3 Zrotation Xrotation Yrotation
				JOINT LeftToeBase
				{
					OFFSET	 0.000000	 0.207117	 0.000000
					CHANNELS 3 Zrotation Xrotation Yrotation
					End Site
					{
						OFFSET	 0.000000	 0.207117	 0.000000
					}
				}
			}
		}
	}
	JOINT RightUpLeg
	{
		OFFSET	-0.124023	-0.065224	 0.008373
		CHANNELS 3 Zrotation Xrotation Yrotation
		JOINT RightLeg
		{
			OFFSET	 0.000000	 0.570047	 0.000000
			CHANNELS 3 Zrotation Xrotation Yrotation
			JOINT RightFoot
			{
				OFFSET	 0.000000	 0.544354	 0.000000
				CHANNELS 3 Zrotation Xrotation Yrotation
				JOINT RightToeBase
				{
					OFFSET	 0.000000	 0.207540	 0.000000
					CHANNELS 3 Zrotation Xrotation Yrotation
					End Site
					{
						OFFSET	 0.000000	 0.207540	 0.000000
					}
				}
			}
		}
	}
	JOINT Spine
	{
		OFFSET	 0.000184	 0.117403	 0.007763
		CHANNELS 3 Zrotation Xrotation Yrotation
		JOINT Spine1
		{
			OFFSET	 0.000000	 0.137269	 0.000000
			CHANNELS 3 Zrotation Xrotation Yrotation
			JOINT Spine2
			{
				OFFSET	 0.000000	 0.156879	 0.000000
				CHANNELS 3 Zrotation Xrotation Yrotation
				JOINT LeftShoulder
				{
					OFFSET	 0.080501	 0.160143	 0.002496
					CHANNELS 3 Zrotation Xrotation Yrotation
					JOINT LeftArm
					{
						OFFSET	 0.000000	 0.164363	 0.000000
						CHANNELS 3 Zrotation Xrotation Yrotation
						JOINT LeftForeArm
						{
							OFFSET	 0.000000	 0.364576	 0.000000
							CHANNELS 3 Zrotation Xrotation Yrotation
							JOINT LeftHand
							{
								OFFSET	 0.000000	 0.360812	 0.000000
								CHANNELS 3 Zrotation Xrotation Yrotation
								JOINT LeftHandIndex1
								{
									OFFSET	 0.000000	 0.086006	 0.000000
									CHANNELS 3 Zrotation Xrotation Yrotation
									JOINT LeftHandIndex2
									{
										OFFSET	 0.000000	 0.047237	 0.000000
										CHANNELS 3 Zrotation Xrotation Yrotation
										JOINT LeftHandIndex3
										{
											OFFSET	-0.004284	 0.038165	 0.000551
											CHANNELS 3 Zrotation Xrotation Yrotation
											End Site
											{
												OFFSET	-0.004284	 0.038165	 0.000551
											}
										}
									}
								}
							}
						}
					}
				}
				JOINT Neck
				{
					OFFSET	 0.000000	 0.176489	 0.000000
					CHANNELS 3 Zrotation Xrotation Yrotation
					JOINT Head
					{
						OFFSET	 0.000000	 0.077941	 0.001747
						CHANNELS 3 Zrotation Xrotation Yrotation
						End Site
						{
							OFFSET	 0.000000	 0.077941	 0.001747
						}
					}
				}
				JOINT RightShoulder
				{
					OFFSET	-0.080363	 0.159706	-0.000306
					CHANNELS 3 Zrotation Xrotation Yrotation
					JOINT RightArm
					{
						OFFSET	 0.000000	 0.164196	 0.000000
						CHANNELS 3 Zrotation Xrotation Yrotation
						JOINT RightForeArm
						{
							OFFSET	 0.000000	 0.365611	 0.000000
							CHANNELS 3 Zrotation Xrotation Yrotation
							JOINT RightHand
							{
								OFFSET	 0.000000	 0.360648	 0.000000
								CHANNELS 3 Zrotation Xrotation Yrotation
								JOINT RightHandIndex1
								{
									OFFSET	 0.000000	 0.069977	 0.000000
									CHANNELS 3 Zrotation Xrotation Yrotation
									JOINT RightHandIndex2
									{
										OFFSET	 0.000000	 0.052305	 0.000000
										CHANNELS 3 Zrotation Xrotation Yrotation
										JOINT RightHandIndex3
										{
											OFFSET	 0.009002	 0.042196	 0.000782
											CHANNELS 3 Zrotation Xrotation Yrotation
											End Site
											{
												OFFSET	 0.009002	 0.042196	 0.000782
											}
										}
									}
								}
							}
						}
					}
				}
			}
		}
	}
}
MOTION
Frames:    6
Frame Time: 0.03333334
-0.044203	 1.233981	-1.249239	-4.028313	 1.466622	-174.049500	 174.667300	 7.554323	-17.369290	 4.303194	-29.388650	 6.152127	 7.649242	 80.688740	-0.253126	 1.515928	 31.285610	-2.813375	 166.117200	 27.378970	 21.984130	-5.878754	-53.640380	 6.282505	 4.073752	 70.867030	-3.421436	-1.670119	 33.156300	 2.886979	-1.327214	 8.674564	 5.964607	-3.693791	 4.363189	 4.116985	 4.097099	-4.695117	-14.805310	-121.357700	 7.468874	 94.058010	 45.281020	 12.303790	-10.887360	 4.610067	-0.226003	-0.354189	 11.202620	 25.599550	 12.049820	 4.630033	 18.875740	-1.658090	-5.863901	 21.487720	 2.375531	 5.332253	 4.356985	-0.168730	-0.169201	-5.013442	-0.140884	-2.092603	-2.498713	-6.688004	 118.417600	-0.040027	-90.813800	-3.585641	 46.416630	-2.115583	-5.216277	-0.195644	 0.329195	 0.326473	 1.947845	 20.399940	-2.416867	 25.834540	 1.324945	 15.814910	 44.827260	-11.782220	-8.529628	 23.831940	-1.217103
-0.043973	 1.232614	-1.261454	-4.086870	 1.242932	-173.844300	 175.016300	 7.148223	-18.594170	 4.306205	-29.531270	 6.322414	 9.307939	 81.326450	-2.034361	 1.530209	 31.462910	-2.820119	 164.745200	 28.782690	 24.604210	-5.941020	-53.581760	 6.390940	 4.751644	 73.064930	-4.107832	-1.676344	 33.230650	 2.890098	-1.064108	 8.574536	 4.049141	-3.730042	 4.366697	 4.100705	 4.101496	-4.708557	-14.856290	-121.353100	 7.646342	 94.146150	 44.020510	 11.689080	-10.213010	 5.524344	-0.225191	-1.445875	 14.895030	 25.142730	 9.300762	 4.652965	 18.950930	-1.670331	-5.863702	 21.553770	 2.382823	 5.335089	 4.423424	-0.167524	-0.172446	-5.028531	-0.125958	-2.035545	-2.573480	-6.695023	 118.393000	-0.144692	-90.764690	-2.627737	 45.917030	-2.496368	-6.178288	-0.196739	 1.421122	 0.610344	 3.002307	 20.816910	-2.334106	 25.216260	 1.280948	 15.660940	 44.223830	-11.543710	-8.531733	 23.211310	-1.175843
-0.043525	 1.229971	-1.286188	-4.180344	 0.891058	-173.522000	 175.379500	 6.121380	-19.725550	 4.299953	-29.495630	 6.637745	 12.019190	 82.365300	-5.112843	 1.552769	 31.741660	-2.830855	 162.862400	 31.616330	 27.771660	-5.702899	-52.885160	 6.946706	 5.651131	 75.464680	-5.282602	-1.686152	 33.347560	 2.895025	-0.671248	 8.403075	 1.027882	-3.747859	 4.467257	 4.058394	 4.087776	-4.771813	-14.937180	-121.346600	 7.925351	 94.284730	 41.706170	 10.643660	-9.071433	 6.943408	-0.223033	-3.160819	 21.052820	 24.262000	 4.815788	 4.689075	 19.069130	-1.689653	-5.863408	 21.657620	 2.394294	 5.339547	 4.527883	-0.165635	-0.177541	-5.052257	-0.102491	-1.945821	-2.691050	-6.705942	 118.354400	-0.309295	-90.687560	-0.653189	 45.114730	-3.450118	-7.700108	-0.198843	 3.136161	 0.658028	 4.634549	 21.430390	-2.205820	 24.243730	 1.214172	 15.428870	 43.273880	-11.177910	-8.534050	 22.235200	-1.111378
-0.042726	 1.225515	-1.328432	-4.307535	 0.407591	-173.081000	 175.761400	 4.044570	-20.669160	 4.196870	-28.904710	 7.026389	 16.590570	 83.803750	-10.452280	 1.583963	 32.124480	-2.845863	 160.706800	 35.632630	 31.534100	-5.111139	-49.834390	 7.923188	 5.964751	 76.898600	-6.586852	-1.699662	 33.508110	 2.901842	-0.172178	 8.143468	-3.112918	-3.716349	 4.714302	 3.968350	 4.040646	-4.906890	-15.049420	-121.338700	 8.308570	 94.475200	 38.184500	 9.084200	-7.486109	 8.869617	-0.218793	-5.509656	 29.773440	 22.631320	-1.503938	 4.738778	 19.231440	-1.716340	-5.863039	 21.800240	 2.410059	 5.345665	 4.671337	-0.163053	-0.184521	-5.084843	-0.070266	-1.822580	-2.852573	-6.720681	 118.301900	-0.535426	-90.581860	 2.628319	 43.810730	-5.150077	-9.787313	-0.201550	 5.484556	 0.175532	 6.986333	 22.171060	-2.033134	 22.907520	 1.127095	 15.129080	 41.967210	-10.692840	-8.535289	 20.894290	-1.023591
-0.040839	 1.216502	-1.409980	-4.503657	-0.406175	-172.340800	 176.271500	-0.456114	-21.501910	 3.828971	-26.739520	 7.598196	 29.170280	 85.805670	-24.770470	 1.637022	 32.768610	-2.871820	 159.689700	 39.501800	 35.376980	-3.327438	-37.664640	 10.318040	 6.737057	 76.058080	-9.964516	-1.722504	 33.778250	 2.913444	 0.563949	 7.645790	-9.951549	-3.603986	 5.114352	 3.737714	 3.938066	-5.123171	-15.239420	-121.328300	 8.953468	 94.796000	 32.696100	 6.525852	-5.399373	 12.103840	-0.212280	-9.430692	 43.262130	 18.717390	-11.587750	 4.822701	 19.504490	-1.761641	-5.862516	 22.040230	 2.436620	 5.355946	 4.912722	-0.158742	-0.196227	-5.139683	-0.016048	-1.615129	-3.124517	-6.744761	 118.214400	-0.916159	-90.404390	 8.129436	 41.310160	-7.873615	-13.240900	-0.204334	 9.404429	-0.877683	 11.064180	 23.079480	-1.751014	 20.658400	 0.992081	 14.670220	 39.764360	-9.917857	-8.532459	 18.637770	-0.877573
-0.038217	 1.206842	-1.485394	-4.636003	-1.149987	-171.647700	 176.841800	-4.327200	-21.837590	 3.554555	-25.067940	 8.125813	 53.644940	 87.079590	-51.097030	 1.703178	 33.559400	-2.904928	 162.442200	 38.246890	 35.618600	-1.658304	-21.049570	 12.836100	 13.539400	 74.926620	-18.694220	-1.745084	 34.043700	 2.925007	 1.164323	 7.114927	-16.179750	-3.550858	 5.069301	 3.435121	 3.885736	-5.127736	-15.412930	-121.318800	 9.548981	 95.092320	 29.162330	 4.467333	-4.575276	 15.211000	-0.209432	-13.108270	 53.021170	 14.461910	-19.767620	 4.906307	 19.762590	-1.806301	-5.862118	 22.274970	 2.462642	 5.366156	 5.152799	-0.154496	-0.206484	-5.190400	 0.034592	-1.422145	-3.371000	-6.754132	 118.141800	-1.273462	-90.238660	 11.500100	 39.370840	-9.121583	-16.436950	-0.204667	 13.081240	-0.381795	 14.449810	 23.443610	-1.497875	 18.500820	 0.879139	 14.279230	 37.651040	-9.218794	-8.524169	 16.478350	-0.739425
